<svg width="73" height="73" viewBox="0 0 73 43" fill="none" xmlns="http://www.w3.org/2000/svg">
<path d="M18.18 43.72C15.42 43.72 12.92 43.28 10.68 42.4C8.48 41.48 6.58 40.12 4.98 38.32C3.42 36.52 2.22 34.3 1.38 31.66C0.54 28.98 0.12 25.88 0.12 22.36C0.12 18.84 0.54 15.72 1.38 13C2.22 10.24 3.42 7.94 4.98 6.1C6.58 4.22 8.48 2.8 10.68 1.84C12.92 0.879997 15.42 0.399998 18.18 0.399998C21.94 0.399998 25.06 1.2 27.54 2.8C30.02 4.4 32 6.82 33.48 10.06L26.7 13.66C26.1 11.78 25.12 10.28 23.76 9.16C22.4 8 20.54 7.42 18.18 7.42C15.22 7.42 12.86 8.42 11.1 10.42C9.38 12.42 8.52 15.22 8.52 18.82V25.42C8.52 29.06 9.38 31.86 11.1 33.82C12.86 35.74 15.22 36.7 18.18 36.7C20.54 36.7 22.46 36.06 23.94 34.78C25.46 33.5 26.56 31.92 27.24 30.04L33.66 33.82C32.14 36.94 30.12 39.38 27.6 41.14C25.08 42.86 21.94 43.72 18.18 43.72ZM50.1361 43L36.4561 1.12H44.5561L50.9761 21.52L54.6961 35.44H54.8761L58.5361 21.52L64.9561 1.12H72.8161L59.1361 43H50.1361Z" fill="#9C9C9C"/>
</svg>
