<svg width="123" height="123" viewBox="0 0 123 123" fill="none" xmlns="http://www.w3.org/2000/svg">
<g clip-path="url(#clip0_39_165)">
<path d="M61.5 4.08398C93.2109 4.08398 118.868 29.741 118.868 61.4039C118.868 93.0668 93.2109 118.772 61.5 118.772C29.7891 118.772 4.13202 93.1149 4.13202 61.452C4.13202 29.7891 29.7891 4.08398 61.5 4.08398Z" fill="#E74D89"/>
<path d="M61.5 122.856C27.5789 122.856 0 95.325 0 61.452C0 27.5309 27.5789 0 61.5 0C95.4211 0 123 27.5309 123 61.4039C123 95.277 95.4211 122.856 61.5 122.856ZM113.343 69.8121C111.565 69.2356 97.1027 64.9594 80.6227 67.5539C87.4934 86.3883 90.2801 101.763 90.8086 104.934C102.628 97.0066 111.036 84.4184 113.343 69.8121ZM82.016 109.787C81.2473 105.175 78.1723 89.127 70.8211 70.0043C70.725 70.0523 70.5809 70.1004 70.4848 70.1004C40.8398 80.4305 30.2215 100.946 29.2605 102.868C38.1492 109.787 49.3441 113.919 61.5 113.919C68.7551 113.967 75.7219 112.478 82.016 109.787V109.787ZM22.4859 96.5742C23.6871 94.5563 38.1012 70.725 65.1996 61.9324C65.8723 61.6922 66.593 61.5 67.2656 61.3078C65.9684 58.3289 64.527 55.35 62.9895 52.4191C36.7559 60.2508 11.291 59.9145 8.98477 59.8664C8.98477 60.3949 8.93672 60.9234 8.93672 61.452C8.98477 74.9531 14.0777 87.2531 22.4859 96.5742V96.5742ZM10.0898 50.7375C12.4441 50.7855 34.0652 50.8816 58.6652 44.3473C49.9687 28.8762 40.5516 15.9035 39.2062 14.0297C24.4559 20.9484 13.5012 34.4977 10.0898 50.7375ZM49.2 10.4742C50.6414 12.3961 60.2027 25.3687 68.8031 41.1762C87.4934 34.1613 95.373 23.591 96.334 22.2457C87.0609 14.0297 74.857 9.03281 61.5 9.03281C57.2719 9.03281 53.1398 9.56133 49.2 10.4742V10.4742ZM102.148 28.2996C101.043 29.7891 92.25 41.0801 72.8391 49.0078C74.0402 51.5063 75.2414 54.0527 76.3465 56.5992C76.7309 57.5121 77.1152 58.425 77.4996 59.2898C94.9887 57.0797 112.334 60.6352 114.063 60.9715C113.919 48.6234 109.499 37.2363 102.148 28.2996V28.2996Z" fill="#B2215A"/>
</g>
<defs>
<clipPath id="clip0_39_165">
<rect width="123" height="123" fill="white"/>
</clipPath>
</defs>
</svg>
