<svg width="102" height="102" viewBox="0 0 102 102" fill="none" xmlns="http://www.w3.org/2000/svg">
<path fill-rule="evenodd" clip-rule="evenodd" d="M31.7263 4.5305C36.7115 4.301 38.301 4.25 51 4.25C63.699 4.25 65.2885 4.30525 70.2695 4.5305C75.2505 4.75575 78.6505 5.5505 81.6255 6.70225C84.7407 7.8795 87.567 9.71975 89.9045 12.0997C92.2845 14.433 94.1205 17.255 95.2935 20.3745C96.4495 23.3495 97.24 26.7495 97.4695 31.722C97.699 36.7158 97.75 38.3053 97.75 51C97.75 63.699 97.6948 65.2885 97.4695 70.2737C97.2443 75.2462 96.4495 78.6462 95.2935 81.6212C94.1205 84.7411 92.2814 87.5678 89.9045 89.9045C87.567 92.2845 84.7407 94.1205 81.6255 95.2935C78.6505 96.4495 75.2505 97.24 70.278 97.4695C65.2885 97.699 63.699 97.75 51 97.75C38.301 97.75 36.7115 97.6948 31.7263 97.4695C26.7538 97.2443 23.3538 96.4495 20.3788 95.2935C17.2589 94.1203 14.4322 92.2813 12.0955 89.9045C9.71711 87.5698 7.87659 84.7445 6.70225 81.6255C5.5505 78.6505 4.76 75.2505 4.5305 70.278C4.301 65.2842 4.25 63.6947 4.25 51C4.25 38.301 4.30525 36.7115 4.5305 31.7305C4.75575 26.7495 5.5505 23.3495 6.70225 20.3745C7.87832 17.2553 9.72025 14.4301 12.0997 12.0955C14.4332 9.71763 17.257 7.87713 20.3745 6.70225C23.3495 5.5505 26.7495 4.76 31.722 4.5305H31.7263ZM69.8912 12.9455C64.9612 12.7203 63.4823 12.6735 51 12.6735C38.5177 12.6735 37.0387 12.7203 32.1087 12.9455C27.5485 13.1538 25.075 13.9145 23.426 14.5562C21.2458 15.4062 19.686 16.4135 18.0498 18.0498C16.4987 19.5587 15.305 21.3957 14.5562 23.426C13.9145 25.075 13.1538 27.5485 12.9455 32.1087C12.7203 37.0387 12.6735 38.5177 12.6735 51C12.6735 63.4823 12.7203 64.9612 12.9455 69.8912C13.1538 74.4515 13.9145 76.925 14.5562 78.574C15.3042 80.6013 16.4985 82.4415 18.0498 83.9503C19.5585 85.5015 21.3988 86.6958 23.426 87.4438C25.075 88.0855 27.5485 88.8463 32.1087 89.0545C37.0387 89.2798 38.5135 89.3265 51 89.3265C63.4865 89.3265 64.9612 89.2798 69.8912 89.0545C74.4515 88.8463 76.925 88.0855 78.574 87.4438C80.7543 86.5938 82.314 85.5865 83.9503 83.9503C85.5015 82.4415 86.6958 80.6013 87.4438 78.574C88.0855 76.925 88.8463 74.4515 89.0545 69.8912C89.2798 64.9612 89.3265 63.4823 89.3265 51C89.3265 38.5177 89.2798 37.0387 89.0545 32.1087C88.8463 27.5485 88.0855 25.075 87.4438 23.426C86.5938 21.2458 85.5865 19.686 83.9503 18.0498C82.4412 16.4988 80.6042 15.3051 78.574 14.5562C76.925 13.9145 74.4515 13.1538 69.8912 12.9455V12.9455ZM45.0288 65.4117C48.3636 66.7999 52.0769 66.9873 55.5344 65.9418C58.992 64.8963 61.9794 62.6829 63.9863 59.6795C65.9933 56.6762 66.8952 53.0692 66.5382 49.4747C66.1812 45.8802 64.5873 42.5211 62.0288 39.9712C60.3978 38.3413 58.4257 37.0932 56.2544 36.3169C54.0832 35.5405 51.7668 35.2553 49.4721 35.4816C47.1774 35.708 44.9614 36.4403 42.9837 37.6258C41.0059 38.8114 39.3157 40.4207 38.0345 42.3379C36.7534 44.2551 35.9133 46.4325 35.5747 48.7133C35.2361 50.9942 35.4074 53.3217 36.0763 55.5284C36.7452 57.7351 37.895 59.7661 39.4431 61.4751C40.9911 63.184 42.8988 64.5285 45.0288 65.4117ZM34.0085 34.0085C36.2399 31.7771 38.8889 30.0071 41.8043 28.7995C44.7197 27.5919 47.8444 26.9704 51 26.9704C54.1556 26.9704 57.2803 27.5919 60.1957 28.7995C63.1111 30.0071 65.7601 31.7771 67.9915 34.0085C70.2229 36.2399 71.9929 38.8889 73.2005 41.8043C74.4081 44.7197 75.0296 47.8444 75.0296 51C75.0296 54.1556 74.4081 57.2803 73.2005 60.1957C71.9929 63.1111 70.2229 65.7601 67.9915 67.9915C63.4851 72.4979 57.373 75.0296 51 75.0296C44.627 75.0296 38.5149 72.4979 34.0085 67.9915C29.5021 63.4851 26.9704 57.373 26.9704 51C26.9704 44.627 29.5021 38.5149 34.0085 34.0085V34.0085ZM80.359 30.549C80.9119 30.0274 81.3546 29.4001 81.6608 28.7044C81.967 28.0086 82.1304 27.2585 82.1415 26.4985C82.1526 25.7384 82.0111 24.9838 81.7253 24.2794C81.4395 23.5751 81.0153 22.9352 80.4778 22.3977C79.9403 21.8602 79.3004 21.436 78.5961 21.1502C77.8917 20.8644 77.1371 20.7229 76.377 20.734C75.617 20.7451 74.8669 20.9085 74.1711 21.2147C73.4754 21.5209 72.8481 21.9636 72.3265 22.5165C71.3121 23.5919 70.7567 25.0203 70.7782 26.4985C70.7998 27.9766 71.3966 29.3882 72.4419 30.4336C73.4873 31.4789 74.8989 32.0757 76.377 32.0973C77.8552 32.1188 79.2836 31.5634 80.359 30.549V30.549Z" fill="#9C9C9C"/>
</svg>
