<svg width="113" height="113" viewBox="0 0 113 113" fill="none" xmlns="http://www.w3.org/2000/svg">
<g clip-path="url(#clip0_308_8)">
<path d="M102.406 0H10.5938C4.76719 0 0 4.76719 0 10.5938V102.406C0 108.233 4.76719 113 10.5938 113H102.406C108.233 113 113 108.233 113 102.406V10.5938C113 4.76719 108.233 0 102.406 0ZM42.375 91.8125H28.25V42.375H42.375V91.8125ZM35.3125 35.3125C33.4394 35.3125 31.643 34.5684 30.3186 33.2439C28.9941 31.9195 28.25 30.1231 28.25 28.25C28.25 26.3769 28.9941 24.5805 30.3186 23.2561C31.643 21.9316 33.4394 21.1875 35.3125 21.1875C37.1856 21.1875 38.982 21.9316 40.3064 23.2561C41.6309 24.5805 42.375 26.3769 42.375 28.25C42.375 30.1231 41.6309 31.9195 40.3064 33.2439C38.982 34.5684 37.1856 35.3125 35.3125 35.3125ZM91.8125 91.8125H77.6875V63.5625C77.6875 61.6894 76.9434 59.893 75.6189 58.5686C74.2945 57.2441 72.4981 56.5 70.625 56.5C68.7519 56.5 66.9555 57.2441 65.6311 58.5686C64.3066 59.893 63.5625 61.6894 63.5625 63.5625V91.8125H49.4375V42.375H63.5625V51.1396C66.4723 47.1422 70.9358 42.375 75.9219 42.375C84.7076 42.375 91.8125 50.2779 91.8125 60.0312V91.8125Z" fill="#9C9C9C"/>
</g>
<defs>
<clipPath id="clip0_308_8">
<rect width="113" height="113" fill="white"/>
</clipPath>
</defs>
</svg>
