<svg width="99" height="99" viewBox="0 0 99 99" fill="none" xmlns="http://www.w3.org/2000/svg">
<g clip-path="url(#clip0_303_2)">
<path d="M49.4995 70.3714C43.6792 70.3714 37.986 68.3523 33.4681 64.6857L13.153 48.1987C4.92706 41.7611 4.92822 28.5697 13.153 22.1331L33.4681 5.64605C42.4791 -1.88213 56.5201 -1.88174 65.531 5.64605L85.8461 22.1331C91.0376 26.3463 93.2331 33.2356 91.4397 39.6844C90.8672 41.7427 88.7355 42.9478 86.6758 42.3751C84.6172 41.8027 83.4127 39.6698 83.9853 37.6113C84.9532 34.1304 83.77 30.4131 80.9702 28.141L60.655 11.6538C54.1912 6.40799 44.8079 6.40799 38.344 11.6538L18.0289 28.141C13.5938 31.612 13.5944 38.7205 18.0289 42.1909L38.344 58.6779C44.7967 63.9146 54.1591 63.9239 60.622 58.7046L64.0154 55.8183C65.6428 54.4341 68.0844 54.6308 69.4688 56.2586C70.853 57.8862 70.6561 60.3277 69.0285 61.712L65.5995 64.6286C65.5769 64.648 65.554 64.6669 65.531 64.6857C61.0133 68.3523 55.3199 70.3714 49.4995 70.3714ZM65.531 93.3143L85.8461 76.8273C94.072 70.3897 94.0709 57.1983 85.8461 50.7617L65.531 34.2747C56.5199 26.7465 42.479 26.7469 33.4681 34.2747L30.6041 36.6238C26.7645 40.0368 31.4169 45.7028 35.5106 42.6064L38.3504 40.2774C44.8145 35.0372 54.1935 35.0388 60.655 40.2827L80.9702 56.7697C85.4053 60.2407 85.4047 67.3491 80.9702 70.8196L60.655 87.3066C54.1912 92.5524 44.8079 92.5524 38.344 87.3066L18.0289 70.8196C15.464 68.7378 14.2372 65.4207 14.8274 62.1631C15.2082 60.0606 13.8126 58.0475 11.7103 57.6666C9.6092 57.2863 7.59494 58.6812 7.21387 60.7837C6.12057 66.8191 8.39616 72.9667 13.153 76.8273L33.4681 93.3143C37.9858 96.9807 43.6792 99 49.4995 99C55.3199 99 61.0133 96.9809 65.531 93.3143Z" fill="white"/>
</g>
<defs>
<clipPath id="clip0_303_2">
<rect width="99" height="99" fill="white"/>
</clipPath>
</defs>
</svg>
