<svg width="2027" height="605" viewBox="0 0 2027 605" fill="none" xmlns="http://www.w3.org/2000/svg">
<path fill-rule="evenodd" clip-rule="evenodd" d="M0 423.5L84.4583 413.417C168.917 403.333 337.833 383.167 506.75 332.75C675.667 282.333 844.583 201.667 1013.5 221.833C1182.42 242 1351.33 363 1520.25 342.833C1689.17 322.667 1858.08 161.333 1942.54 80.6667L2027 0V605H1942.54C1858.08 605 1689.17 605 1520.25 605C1351.33 605 1182.42 605 1013.5 605C844.583 605 675.667 605 506.75 605C337.833 605 168.917 605 84.4583 605H0V423.5Z" fill="#101010"/>
</svg>
